<?xml version="1.0" encoding="utf-8"?>
<!-- Generator: Adobe Illustrator 20.1.0, SVG Export Plug-In . SVG Version: 6.00 Build 0)  -->
<svg version="1.1" id="Layer_1" xmlns="http://www.w3.org/2000/svg" xmlns:xlink="http://www.w3.org/1999/xlink" x="0px" y="0px"
	 viewBox="0 0 200 200" style="enable-background:new 0 0 200 200;" xml:space="preserve">
<style type="text/css">
	.st0{fill:#6FC065;}
</style>
<g>
	<path class="st0" d="M46.5,105.3c-1.8-0.9-2-1.4-0.6-1.4l0.4-0.4C46.2,104.1,46.2,104.6,46.5,105.3z M46.2,102.7
		c-0.3-0.3-0.4-0.5-0.4-1c0-0.3,0.1-0.4,0.4-0.6l0.6-0.4c0.3,0.5,0.1,0.9-0.4,1.4L46.2,102.7z M47.2,107.2l-0.4,0.6h-0.6
		C46.2,107.7,46.5,107.5,47.2,107.2z M47.8,104l-1,0.4v-0.6l0.4,0.4l0.4-0.4L47.8,104z M51.5,110.6l-1-0.4h0.6L51.5,110.6z
		 M51.7,117.6l-0.4-0.4l1.4-0.4C52.1,117.6,51.7,117.8,51.7,117.6z M52.5,117.6l-0.6,1h0.4v0.4l-0.4-0.4h-0.4L52.5,117.6z
		 M52.7,113.3c-0.9,0-1.3-0.1-1-0.4v-0.4c0-0.3,0.3-0.3,0.6,0l-0.4-0.4c0-0.3,0.3-0.1,0.6,0.4v0.8H52.7z M146.6,173.4l-0.6,0.4
		L146.6,173.4l-1-1l0.4-0.4l-0.6-0.4h0.4c0-0.4-0.3-0.6-0.6-0.6l0.6-0.6V170h-0.4c-0.3,0-0.5,0.1-0.6,0.4h-0.4l0.4,1
		c-0.5,0-0.6-0.1-0.6-0.4l-0.4,0.4l0.4-1c-0.3-0.3-0.6-0.5-1.4-1l-0.4,0.6l1,0.6h-0.6v-0.4h-0.6l0.4-0.4c-0.6,0-0.9,0.1-0.6,0.4
		l0.4,0.6h0.4l-0.6-0.4v0.4h-0.9v0.4c0-0.4-0.3-0.6-0.6-0.6v0.4h0.4c-0.3,0.3-0.4,0.5-0.4,1h0.4c0.3-0.3,0.6-0.4,1.4-0.4
		c-0.5,0.5-0.9,0.6-1.4,0.5s-0.6,0-0.6,0.5c0.4,0.6,0.6,1.1,0.6,1.4l0.4-0.4l-0.6,1l0.4,0.6c0.4-0.3,0.8-0.4,1-0.4
		c-0.3,0.3-0.5,0.5-0.6,0.9c-0.3,0.4-0.5,0.6-0.6,0.9c-0.3,0-0.4-0.3-0.4-0.6l0.6-0.6h-0.4l-0.4,0.4c0-0.3-0.3-0.4-0.6-0.4l-0.4,0.6
		h0.4v0.4h0.4v0.4l-0.4,0.4h1.4l-0.6,0.6l0.6,0.6l-0.4,0.4h0.4l0.4,0.4c-0.5,0.3-0.6,0.5-0.6,0.6h0.4l0.4,0.4v0.4h1l0.4,0.6h-0.6
		l0.4,0.4l-0.4,0.4l0.6,0.4l-0.4,0.4h0.4v0.6l0.6,0.4l0.4,0.6l-1-1c-0.5-0.3-0.6-0.3-0.6,0c-0.3-0.6-0.6-1-1.4-1l-0.4,0.4l0.4,0.4
		v-0.4h0.4v0.4c0,0.5-0.3,0.5-0.6,0v0.4v0.4l-0.6,0.4v-0.4c-0.3-0.3-0.5-0.5-1-1h0.4v-0.4H139l-0.4-1l-0.4,0.4
		c-0.3-0.3-1.3-0.6-3-1.4l0.4-0.4v-0.4l-0.4-0.4v-0.6c-1.1-1.5-2.1-2.3-3-2.3l0.4-0.6l-2.6-3.6c0-0.3-0.5,0-1.4,0.6l-1.4-1.4h2
		l0.4,0.4v-0.4c0-0.6-0.4-1-1.1-1s-1.1-0.1-1.1-0.4c0-0.4,0.4-0.9,1-1.4c-0.5-0.3-0.8-0.5-1-1l-0.6-1.4l0.4-0.4h-0.4l-0.4-0.4h0.4
		v-0.4c-0.3,0-0.5,0.1-0.6,0.4l-0.4-0.4h0.4v-0.4h-0.4c-0.9-1.8-1.4-2.3-1.4-1.5s-0.5,0.9-1.6,0.1c0-0.4-0.1-0.8-0.4-0.9
		c-0.3-0.1-0.4-0.5-0.4-1.1c-0.9,0-1.4-0.5-1.5-1.5s-0.4-1.8-0.9-2.1l-0.4,0.4c0,0.5-0.4,0-1-1.4l0.4-0.4c-0.5-0.4-1.4-2.1-3-5.3
		c-0.9-5.3-1.4-7.7-1.4-7.3h-0.4c0.3-0.6,0.4-1.1,0.4-1.4h-0.4v0.4l-0.6-0.6h0.6v-2l-1.4,0.4l0.4-0.4h0.4v-0.4h-0.4l-0.4-0.4
		l0.4-0.4h-0.4l0.4-0.6h-0.4c-0.3,0-0.4-0.3-0.4-0.6l-0.4-0.4v-0.6h0.4c0.3-0.3,0.4-0.4,0.6-0.4v-0.4l-1.6,0.4v0.6
		c-0.3-0.6-0.5-0.6-0.6,0c0.3,0-0.1,0.3-1,0.6l-0.4-0.6h-0.4l-0.4-0.4h0.4v-0.6h0.4l0.4,0.4l-0.6-1l1.4,0.4h-0.4l0.4-0.4v-0.4
		l0.4,0.4c0,0.5,0.1,0.6,0.4,0.6v-0.4l0.4,0.4v-1.4l-1.4-0.4v0.4c-0.6,0.5-1,0.5-1.1,0.1c-0.1-0.4-0.4-0.4-0.9-0.1
		c0.3-0.6,0.5-1.1,1-1.4v0.4l0.6-0.4c0,0.5,0.4,0.6,1,0.6h0.4v-0.4h-0.4L110,133l0.4-0.4h0.4l-1-1.4c-0.3,0.3-0.5,0.4-1,0.4l0.4-0.6
		c0-0.3,0.3-0.4,0.6-0.6h0.4v0.4l0.4-0.4c-0.5-0.3-0.9-0.4-1.4-0.4v-0.6l-0.4-0.4l-0.4,0.4l-0.6-0.4l0.4-0.4h-0.6V128l-0.4,0.4
		c0.6,0.6,0.9,1,0.6,1h-0.4c0.3,0,0.4,0.3,0.4,0.6c0.3,0,0-0.4-0.6-1l-1,0.6l0.4-0.4c-0.5-0.3-0.6-0.4-0.6-0.6c0.3,0,0.4,0,0.6,0
		v-0.4l-0.4-0.6l-0.6,0.6v0.4l-0.4-0.4l0.4-0.4c-0.5,0-0.8-0.1-1-0.4l-0.4-0.4l0.4-0.4v0.4l0.6-0.4v-0.4h-0.4l0.6-0.4v1.1
		c0-0.3-0.1-0.5-0.4-1l-0.4-0.4l-1,0.6c-0.3-0.4-0.5-0.5-0.6-0.4v-0.4l0.6-0.4h-1c0,0.5,0,0.8,0,1l-0.4-0.4h-0.1
		c0.4-0.4,0.3-0.6-0.6-0.6l-0.6,0.6h-2l-0.4,0.4v-0.4l-0.4-0.4h0.4v-0.4h-0.6c-0.3-0.3-0.8-0.1-1.6,0.4c0,1.1-0.5,0.8-1.4-1
		c-0.6,0.5-1,0.8-1,1v0.4v-0.4h-0.6v-0.6c-0.3-0.3-0.1-0.4,0.4-0.6c0.3-0.9,0.1-1.6-0.4-2.3h-0.4c0.3,0.3,0,0.5-0.6,0.6l-0.4-0.6
		c0,0.5-0.5,0.6-1.4,0.6c-1.1-0.4-2-0.8-2.6-1h-1v1c0-0.6-0.5-1-1.4-1c-0.3,0.3-0.4,0.5-0.4,0.6c0,0.3,0.1,0.5,0.4,0.6
		c0.4,0.5,0.4,0.6-0.4,0.6c0-0.3-0.3-0.4-0.9-0.6c-0.5-0.3-0.9-0.4-0.9-0.6s0.1-0.4,0.4-0.6h1l0.4-0.4l-1-0.6l0.4-2.3
		c0.4-1.1,0.9-1.8,1.4-2l-1-1l0.4-0.4l-1-1c0.4,0,0.6-0.1,0.6-0.4c-0.9-0.3-1.4-0.5-1.4-1l0.4-0.4v-0.4l-0.4,0.4
		c-0.9-0.6-1.5-1.9-2-3.6c-0.5-1.8-1.3-3-2.3-3.6l-1.6-1.6H77c-0.6-0.6-1-1.5-1-2.6v0.1h0.4c0.9-0.4,1.4-1.3,1.4-2.3l-0.4-2
		c-0.5,0.3-0.6,0.5-0.6,1c0.3,0.5,0.3,0.6,0,0.6c-0.3,0.9-0.4,1.6-0.4,2.3L76,99.9h-0.4c-0.3-0.4-0.6-1-1.4-1.6
		c-0.6,6.7-1.3,13.3-1.6,20.1l-1.4,20.1c0,0.9-0.3,2.3-0.6,4v1.6c0.3,3.3-0.1,8.4-1,15.2v0.4l-0.4,0.4h-2l-0.4-0.4
		c0.3,1.1-0.1,2.9-1,5.3h0.4c-0.6,0-0.9,0.4-0.9,1c0.1,0.6,0,1-0.5,1c-0.5-0.3-0.8-0.3-1,0c-0.3-0.6-0.8-1.5-1.6-2.6
		c-0.3-0.3-0.1-0.5,0.4-1l-0.6-0.6c-1.4-0.6-1.4-1-0.4-1v-4c-0.5-0.4-0.5-0.9-0.4-1.4l0.4-1.4h-0.6l0.6-0.4c-0.6,0-1-0.3-1-0.6v-0.5
		c-0.3,0.5-0.4,0.4-0.4-0.4h0.4v-0.9h0.4v-1.4h-0.4v-1.4h-0.6l-0.4-1c0.4,0,0.6,0.1,0.6,0.4h0.6v-0.4h-0.6v-0.4h0.6
		c0-1.4-0.3-1.8-0.6-1.4c0-0.3-0.1-0.4-0.4-0.6l0.6-0.6H60l0.4-0.4l-1.4-4.7c0,0.5-0.1,0.6-0.4,0.6h-0.4c0.3-0.3,0.4-0.4,0.4-0.6
		h-0.4v0.4l-0.6,0.4c0-0.4-0.3-0.6-0.6-0.6c-0.3,0-0.3-0.4,0-1v-0.4l0.4,0.6l0.6-1.6h0.4v-1H58l0.4-0.4c-0.5-0.4-0.8-0.5-1-0.4
		l-0.6,0.6v-0.6h0.4c0-0.6-0.1-1-0.4-1c0,0.3-0.3,0.4-0.6,0.4c0.3-0.3,0.3-0.6,0-1.4l0.4-0.4l-1-1l0.4-0.4h-0.4l0.4-0.4l0.4-0.6
		v-0.4c0.4-0.3,0.9-0.5,1.4-1v-1.6h-0.4c0-0.3,0.1-0.5,0.4-1l-0.4-0.6l-0.5,0.1l0.6-0.6H57l0.4-0.4l0.4,0.6v-1.4l-0.4-1.6l-0.4-2.3
		l-0.4-3.6v-0.4l-0.4-1.6v-0.4h-0.4l0.4-0.4v-1c-0.5,0.3-0.6,0.5-0.6,0.6V114h0.6l-0.4-1.4v-1.4l-0.4-0.4v-1.6l-0.4-0.4
		c-0.5,0.5-0.8,0.5-1,0.4l-0.4-0.4v0.6h0.6l-0.4,0.4h-0.4l-0.4,0.4l0.6,0.6v0.4c-0.3,0.3-0.5,0.4-0.6,0.4c-0.3,0-0.5-0.1-0.6-0.4h-1
		v-1c-0.3-0.3,0-0.4,0.6-0.4v0.4c0.9,0,1.3-0.3,1-0.6h-0.4l0.4-0.4l-0.4-0.4l-0.4,0.4l0.4-0.6v-0.4h0.4h0.4c0-0.4-0.4-0.6-1-0.6
		h-0.4l0.4-0.4c0.3,0.3,0.5,0.1,1-0.4c0-0.6-0.1-0.9-0.4-0.6h-1.6l1-2c-0.5-0.4,0-0.6,1.4-0.6v-0.4h-0.4c0.3,0,0.4-0.4,0.4-1h-0.4
		l-0.4-0.4c0.3-0.3,0.4-0.4,0.4-0.6l1-1l0.6,0.6h-0.4v0.6h-0.4v0.4c0,0.3,0.3,0.4,0.6,0.4l-0.4,0.4h0.4V102l0.4-1.4v-1.4l-0.4,0.4
		h-0.6l0.4-0.4h-0.4v-0.4c-0.3-0.3-0.5-0.6-0.6-1.4h0.6l0.6-1c0.3,0.3,0.4,0.5,0.4,0.6l0.4-1l-0.4-0.4h0.4v0l-1-0.4v-0.4h-0.4
		l0.4-0.4h-0.6v-0.6l-0.4-0.4c0.6-0.6,1.1-0.9,1.4-0.6l-0.4,0.4c0.9,0,1.3-0.1,1-0.4v-1h-1.4l0.6-0.4l-0.4-0.4
		c-0.5-0.4-0.5-0.6,0-0.6c0.6,0,1-0.4,1-1c0-0.9-0.5-1.5-1.4-2l0.4-0.4l-0.4-0.4h0.4v-0.4L54.4,86H55c-0.5-0.4-0.6-0.8-0.6-1h-0.6
		l0.4,0.6l-0.6-1c0.4,0,0.5-0.1,0.4-0.5c-0.3-0.4,0-0.6,0.6-0.9l0.4,0.6h0.4l-0.4-0.4v-1.4c-0.5,0.5-0.6,0.8-0.6,1v-0.4l-0.6,0.6
		v-0.6v-0.4c-0.3,0-0.4-0.3-0.4-0.6v-0.4c0.6,0,1,0.1,1,0.4c-0.3-0.6-0.6-1-1.4-1l0.4,0.4l-0.4,0.4l0.3,0.4v-0.6h0.6
		c0.3,0.3,0.4,0.3,0.6,0H55l-1-0.6c0-0.3,0.3-0.4,0.6-0.4v0.4l0.4-0.4c-0.3,0-0.4-0.3-0.4-0.6v-0.4h-0.4l-0.4,0.4v0.4h-0.4
		c0.3-0.3,0.3-0.6,0-1.4h-0.4c0-0.3,0.4-0.6,1-1.4l-0.6-1l-0.4,0.4l0.4-0.6h0.4l-0.1-0.4c-0.3,0-0.1-0.5,0.4-1.6l-0.4,0.4h-1.4v-1.6
		l0.6-0.4h0.4L53,71.9h0.6v0.6l0.4-0.4v-0.4c0.3-0.4,0.3-0.9,0-1.4c-0.3-0.4-0.1-0.9,0.4-1.4v-1c-0.5,0.5-0.8,0.6-1,0.6
		c-0.3-0.3-0.4-0.5-0.4-1v-0.4c0.3,0,0.4,0.1,0.6,0.4V67c0-0.4,0.1-1,0.4-1.6c-0.3-0.3-0.6-0.4-1.4-0.4l2.1-14.6
		c0.6-4.9,1.3-9.8,1.6-14.8l-1.4-12c-0.5-3.8-0.8-7.6-1-11.2l2-3c0.6-0.4,1.8-1.6,3.3-3.6c1.1,0,1.9-0.3,2.3-0.6c1.5,0,3-0.4,4.3-1
		c1.8,1.4,2.6,1.9,2.6,1.6l0.4-0.4c0.4,0.3,1,0.6,1.6,1.4c0.6,0.6,1.4,0.8,2.3,0.4c2.1,3.3,3.8,7.7,4.7,13.2c2,0.6,4.4,3,7.3,6.9
		c1.5,3.3,3.4,8.4,5.7,15.6c0.3,1.1,0.5,2,1,2.6c0.3,0.3,0.3,0.5,0,0.6c-0.3,0.5-0.1,0.6,0.4,0.6c1.5,4.7,2.8,8.7,3.6,12.2L95,59.3
		l0.4,0.4L95,60.3h0.4c-0.6,0.3-1,0.5-1,1c0,0.3,0.3,0.5,0.6,0.6c0.9,0.6,0.8,1-0.4,1c0,0.6-0.1,1-0.4,1l-0.4,0.4l0.4,0.4
		c0,0.6-0.4,0.8-1,0.4v1v0.4l0.4-0.4v1.4L93.4,68h0.4c0.3,0,0.4,0.3,0.4,0.6c0,1.8,0.1,2.4,0.4,2c0.4,0.6,0.9,2.1,1.4,4.3v0.6h-0.4
		l0.4,0.6h0.4c0.6,0.6,0.9,1,0.6,1h-0.6l0.4,0.6h-0.4l0.4,0.6l-0.4,0.4v0.4v0.4l-0.5,0.9h-0.4l0.4,0.4c0.3,0.3,0.1,0.5-0.4,1
		l0.6,0.4h-0.3v0.4c0.4,0,0.6,0.1,0.6,0.4l0.6,1h2.3l-0.4,0.4h-0.4c-0.5,0-1.3,0.3-2.3,0.6v-0.4L95.9,85v0.6h-0.6v0.6l0.6,0.6v0.4h2
		v0.9h0.6c-0.3,0-0.4,0.3-0.4,0.6l0.4,0.4h0.4v1c1.1,1.1,2,1.9,2.6,2.3c0,0.9,0.4,1.5,1.1,2c0.8,0.5,1.3,0.9,1.5,1.4
		c1.1,1.1,1.9,1.6,2.3,1.6c1.1,1.8,2.6,4.4,4.7,7.9c0,0.6,0.1,1,0.5,1c0.4,0,0.5,0.3,0.5,0.6l0.6-0.4c-0.6-0.6-0.9-1.4-0.6-2.3v-4.7
		c-0.3-1.1-0.4-2-0.4-2.6c-0.3-0.6-0.1-1.5,0.4-2.6c0.4-0.9,0.4-1.8-0.4-2.6c0-1.4,0.1-2.8,0.4-4.3c0-1.5-0.1-3-0.4-4.3
		c0-0.3,0-0.5-0.1-0.9c-0.1-0.4,0-0.9,0.1-1.5c0-7,0.5-11.8,1.6-14.2c0.3,0.3,0.4-0.3,0.4-1.4c0.4-2.1,0.6-3.8,0.6-4.7h0.4
		c0-0.4,0.9-6.9,2.6-19.5l1-2.3c-0.3,0-0.5,0.1-0.6,0.4v-4.7l-0.4-0.4c0.4-3.8,1.6-8.1,3.6-12.8c0-1.1,0.5-2.1,1.6-3.3
		c2.4-0.9,4.5-1.4,6.3-1.4c1.8,0,3.3,0.4,4.7,1c3.8,3.1,5.5,6.4,5.3,9.9c0,1.4-0.1,2.4-0.4,3.3c-0.5,1.1-0.5,2.1,0,3l-0.4,2.3l-2,3
		l-0.6,6.3l0.4,0.4l-0.4,0.4c-0.3,2.3-0.5,5.7-1,10.2c-0.5,4.7-0.8,8.1-1,10.2v5.9C133,84,132.9,90.8,132.9,93
		c-0.6,6.2-0.8,12.2-0.4,18.2c0.4,6.4,0.8,12.3,1,17.9c0,0.6,0.3,0.9,0.9,0.9c0.5-0.1,0.9,0.1,0.9,0.9c-0.6,0-1.1,0.1-1.4,0.4
		l-0.4,0.6l-0.4-0.4l0.4,0.6h-0.4c0.4,1.1,0.5,1.6,0.4,1.6l-0.6,3.6l0.4,0.4v1.6h0.4l-0.4,0.4l0.4,0.4h0.4v0.6h-0.6
		c0,0.6,0.3,1,0.6,1h0.6c-0.6,0.5-0.8,0.6-0.4,0.6l0.6,0.4v0.6l-0.4,0.6c-0.3-0.3-0.4-0.1-0.4,0.4h0.6c0.3,0.6,0.3,1.3,0,1.6
		c0,0.5,0.1,0.8,0.5,0.9c0.4,0.1,0.5,0.4,0.5,0.9l0.6,0.6v-0.4h0.4c-0.5-1.5-0.6-2-0.6-1.4c-0.5,0-0.4-0.4,0.4-1h-0.5
		c0.3-0.6,1-1,2.3-1c0.6,1.1,0.9,2.1,0.6,3l-1,1l0.4,0.4c-0.5,0-0.9,0.3-1.1,0.6c-0.4,0.5-0.6,0.5-0.9,0.4v0.6c0.4,0,0.8-0.1,1-0.4
		l0.4,0.4l-0.6,0.6h0.4l-0.4,0.4v0.4h-0.4c0,0.3,0.1,0.5,0.4,0.9c0.3,0.4,0.5,0.8,1,1.1l0.6-0.6l-0.4-0.4l-0.4,0.4h0.4l-0.4,0.4
		c-0.5,0-0.4-0.4,0.4-1c-0.5-0.3-0.9-0.4-1.4-0.6l0.4-0.4l0.4-0.4c0,0.5,0.1,0.6,0.4,0.6v0.4h0.4v0.6h0.6c0,0.3-0.1,0.5-0.4,0.6
		l0.4,0.4c0.3-0.3,0.4-0.4,0.6-0.4c0.3,0,0.4,0.1,0.6,0.4h-1v0.4c0.4,0.3,1.1,0.4,2,0.4l-0.6-0.6c-0.3-0.4-0.5-1-1-1.6h0.4
		c-1.4-0.6-1.8-1-1.4-1l0.4-0.4l0.4-0.4l0.4-0.4c0.4-0.4,1-0.4,1.6,0c0.6,0.6,1.1,0.5,1.4-0.6c0.4-0.3,0.6-0.6,0.6-1.4
		c1.1,0,1.6,0.3,1.6,0.6h-0.4v-0.4c-0.6,0-0.9,0.4-0.6,1s0,1-0.6,1c-0.3,0.3,0,0.9,0.6,2c0.6,0,1,0.3,1,0.6c0,0.5,0.1,0.8,0.4,1
		c0,0.3,0,0.5,0,1c1.4,2.6,2,3.6,2,3c1.5,2.6,4,6.7,7.6,12.2c-0.6,0-1.3-0.4-1.6-1.4c-0.5-0.9-0.9-1.4-1.4-1.4c-0.3,0-0.5,0.3-1,0.6
		c0.3-0.9,0-1.9-0.6-3c-0.3-0.4-0.6-1-1.4-1.6s-1-1.4-1-2l-0.4-0.4v-0.6l-1.4-0.4l0.4-0.4l-0.4-0.4c-0.3,0.3-0.4-0.1-0.4-1l-0.4,0.4
		c0-0.3-0.1-0.5-0.4-1l-0.6,1l0.4,0.4c0,0.5-0.1,0.6-0.4,0.6h0.6l0.4,0.4h0.4v1.4c-0.6-0.4-1.1-0.6-1.4-0.6
		c-0.3,0.3-0.1,0.6,0.4,1.4h-0.6c0,0.5,0.3,0.6,0.6,0.6c0,1.1-0.3,1.6-0.6,1.6l0.6,0.6l-0.4-0.4v0.4l1,1v0.4v-0.4
		c0.4,0.5,0.4,0.6,0,0.6v-0.4c-0.3,0-0.5,0.3-0.6,0.6c0.3-0.3,0.3-0.5,0-1v0.4h-0.4l-0.4,0.4c-0.5,0-0.5,0.3,0,0.6
		c0.6,0.9,1.4,1.1,2,0.6l0.4-0.4v0.4h0.4c0.3-0.4,0.4-0.3,0.4,0.6s0.1,1.4,0.4,1.6l1,1c0.4-0.9,0.9-1.4,1.4-1.6
		c0.6,0,1.3,0.3,1.6,0.6c0.4,1.1,0.4,2.3,0,3.3l-1.6,1.6v0.4l-0.4,0.4h-0.4c-0.6-0.3-1-0.4-1-0.6c-0.3,0-0.3-0.3,0-0.6l-0.4-0.4
		c0.3-0.3,0.3-0.4,0-0.6l-0.4,0.4L146.6,173.4z M52.1,114.9l0.6,0.4h0.4h-0.6L52.1,114.9z M54.1,105.3l0.4,0.4h-1l-0.4,0.4l0.4-0.4
		h-0.6v0.4h0.4c-0.3,0.3,0,0.4,0.6,0.4v-0.4h0.4l0.4-0.4L54.1,105.3z M53.4,113.9H53l0.6-0.6C53.8,113.9,53.6,114.2,53.4,113.9z
		 M53.1,114.3c0.3,0.5,0.4,0.6,0.6,0.6l-0.6,0.4V114.3z M53.1,119.8l0.4,1.6C53.3,121.3,53.1,120.7,53.1,119.8z M53.1,133l0.4,0.4
		l-0.4,0.4V133z M53.4,108.9h0.4l0.4-0.4L53.4,108.9z M54.4,112.9c0-0.3-0.4-0.4-1-0.4l0.4-0.4C54,112.5,54.3,112.6,54.4,112.9z
		 M54.1,97c-0.6,0.3-0.8,0.5-0.4,0.6v-0.4l0.4,0.4V97z M54.1,90.8v0.4h-0.4l0.4,0.4V90.8z M53.8,92.8c0.4,0,0.6-0.3,0.6-0.6v0.6
		H53.8z M55.4,96.7c-0.5,0.3-0.6,0.1-0.6-0.4l-1-0.6h0.6v-0.4l0.4-0.4l-0.6-0.4h0.6c0.3,0.3,0.4,0.5,0.4,1l-0.4,0.4l0.4,0.4h0.4
		v-0.4h0.4C55.5,96.3,55.4,96.5,55.4,96.7z M54.1,98h-0.4v-0.4L54.1,98z M53.8,115.5c0.3-0.3,0.4-0.4,0.4-0.6v0.6H53.8z M54.1,87.1
		h0.6l-0.6,0.6V87.1z M55.1,91.1c-0.3,0.5-0.5,0.5-1,0l0.4-0.4L55.1,91.1z M55.4,107v-0.4L55,106c-0.5,0.5-0.8,0.5-1,0.4
		c0.3,0.3,0.4,0.5,0.4,0.6l0.4-0.4l0.4,0.6L55.4,107z M55.4,107.6h-1l-0.4,1l1.6,0.4L55.4,107.6z M54.4,120.8l-0.4,0.6v-0.4
		c0.3-0.3,0.4-0.4,0.4-0.6l0.6,0.6L54.4,120.8z M55.1,73.3c0-0.3-0.3-0.4-0.6-0.4l0.4,0.6h-0.4l0.4,0.4L55.1,73.3z M55.1,112.3
		c-0.5,0-0.6,0.1-0.6,0.4l0.6-1.4V112.3z M55.4,133.4l-0.4,0.4l-0.6,0.4C54.4,133.2,54.8,132.9,55.4,133.4z M55.8,100.3l-1,0.4v-0.4
		H55.8z M55.4,99.3c0.3,0,0.4-0.3,0.4-0.6l-0.6-0.4v0.6v0.4H55.4z M55.8,115.2v0.4l-0.4-0.4H55.8z M56.8,119.6l-0.4,0.4v-0.4h-1
		l0.4-0.4h0.4L56.8,119.6z M57.8,126.7h-0.4v0.4L57.8,126.7z M57.8,138.1c0.3,0,0.4-0.1,0.6-0.4l0.4,0.6h-1V138.1z M58.7,143
		c-0.3-0.3-0.5-0.4-1-0.4C57.9,142.5,58.3,142.6,58.7,143z M59,140l0.4,0.4l-0.4-1v0.4l-0.4-0.4C58.7,139.8,58.8,140,59,140z
		 M60,146.2h-0.4l-0.4-0.4h0.6v0.4H60z M70.2,83.2v-0.4h-0.4L70.2,83.2z M70.6,82.2l-0.4-0.4v0.4h0.6l0.4,0.4l0.4-0.6
		C71.4,81.8,71.1,81.9,70.6,82.2z M71,83.2h-0.6C70.2,83.8,70.5,83.8,71,83.2z M72.3,81.4h-0.4c0,0.3-0.1,0.5-0.4,0.6l0.4,0.4v0.6
		h-0.4v0.4l-0.4-0.4c0.3,0.3,0.1,0.8-0.4,1.6l1-0.6v0.4c0-0.9,0.1-1.3,0.4-1h0.4l0.4-2.6L72.3,81.4z M73.3,80.4l-0.4-0.4l-0.4,0.4
		v-0.4l-0.4-0.4h-0.4l0.4,0.4L73.3,80.4z M77.3,95.7l-1-4c0.3,0-0.1,0.5-1,1.6c0.6,0,1,0.1,1,0.4L75.9,94c0,0.6-0.4,1.4-1,2h-0.4
		v0.4l0.4,0.4v1h-0.4c0,0.5,0.1,0.6,0.4,0.6c0-0.4,0.1-0.6,0.4-0.6v0.6c0.3,0,0.4,0.4,0.4,1H76C75.9,98.3,76.4,97,77.3,95.7z
		 M80.6,110.9c-0.9-1.8-1.5-3-2-3.6c0.4,0,0.6,0.1,0.6,0.4h0.4v1l0.4,0.4h-0.4L80.6,110.9z M80.9,112.3l-0.4-1v-0.6l1,1.6H80.9z
		 M83.6,116.9l-0.4-0.6c-0.3-0.3-0.4-0.6-0.4-1.4L83.6,116.9z M88.5,129.4v0.6h-0.4c-0.3,0.3-0.5,0.5-1,0.6c-0.5,0.3-0.8,0.5-1,0.6
		l0.4,0.4l-0.6-0.4l2.3-2.3l0.6,0.4H88.5z M86.9,124.5l0.4,1.6C87,125.9,86.9,125.4,86.9,124.5z M91.8,132h-1.6
		c0-0.9-0.1-1.4-0.4-1.4v-0.4C90.5,131.1,91.1,131.6,91.8,132z M93.8,130.8h-0.4v0.4l-0.6,1l-0.4,0.4v-0.4c-0.3,0.3-0.4-0.1-0.4-1
		c-0.9-0.3-1.4-0.4-1.6-0.6c0.4,0.3,0.6,0,0.6-0.6c0.6,0,1.4,0.4,2,1l0.4-0.4L93.8,130.8l0.6-0.4C94.3,130.6,94,130.8,93.8,130.8z
		 M92.8,127.7h-0.6c-0.9,0-1-0.4-0.4-1v-0.4c0-0.4,0.4-0.4,1,0c0.4,0.3,0.8,0.1,1-0.4l0.6,0.6C93.3,126.7,92.8,127.1,92.8,127.7z
		 M92.8,62.9v-1C92.1,61.9,92.1,62.3,92.8,62.9z M93.4,65v-0.6V65z M99.7,132.4v0.4c-0.5-0.4-0.8-0.6-1-0.6c-0.5,0.9-0.4,1.5,0.4,2
		h0.6v0.4h-0.6c-0.3,0-0.5-0.1-0.6-0.4h-0.4l-2.3-1c0,0.3,0.1,0.5,0.4,0.6h-0.6v-0.4l-0.4-0.4c-0.6,0.6-0.9,1-0.6,1v0.4l-0.4-0.4
		c-0.5,0-0.5-0.3,0-0.6c-0.3-0.3,0.1-0.4,1-0.4c-0.3,0-0.3-0.3,0-0.6l1.4-1.4h0.4l0.4-0.4l-0.4,0.6c0,0.3,0.3,0.4,0.6,0.4l-0.4-0.4
		l0.4-0.4v0.6c0.3-0.3,0.5-0.4,1-0.6l0.4-0.4v0.4c0,0.3,0.3,0.4,0.6,0.4v0.6L99.7,132.4z M96.8,83.8l-0.4-0.4h-0.6l0.4,0.4
		C96.3,84.2,96.5,84.2,96.8,83.8z M96,79.2v0.4v-0.6V79.2z M96.4,81.4H96l0.4-1l0.6,0.4C97,82.2,96.9,82.3,96.4,81.4z M98.1,135.4
		c-0.5,0-0.8-0.1-1-0.5c-0.3-0.4-0.5-0.5-1-0.5c0.6,1.4,1,1.8,1,1.4L98.1,135.4z M96.4,86.5h0.4v-0.4L96.4,86.5z M97.4,85.8L97,86.1
		h-0.4L97.4,85.8z M97.8,127.7l-0.8-0.6l-0.4,0.4v-0.4H97h-0.4l0.4-0.4c0.3-0.3,0.4-0.4,0.6-0.4l-0.4,0.4L97.8,127.7z M97.4,131.8
		c-0.5,0.3-0.4,0.4,0.4,0.4L97.4,131.8z M97.4,86.1l0.4,0.6C97.3,86.6,97.2,86.3,97.4,86.1z M97.8,85.1v-0.4l-0.4,0.4l0.4,0.4
		l0.4-0.6L97.8,85.1z M98.1,135.7c0.3-0.3,0.5-0.1,1,0.4l-1.4-0.4H98.1z M99.7,125.5l-0.4-0.4h-0.4v0.4H99.7z M99.4,136.4
		c0.4-0.3,0.9-0.4,1.4-0.6h-0.6l-1,0.4L99.4,136.4z M100.7,83.5h-0.6c-0.3,0-0.5-0.1-0.6-0.4h1.4v0.4H100.7z M99.4,83.8h1.6l-1-0.4
		L99.4,83.8z M100.1,127.7h-0.6l2-0.4C101.2,127.6,100.7,127.7,100.1,127.7z M100.1,128.8h-0.6l0.4-0.6L100.1,128.8z M101.1,132.4
		h-1l-0.4-1h-0.4v-0.6c0.4,0,1.1,0.5,2,1.4L101.1,132.4z M101.1,135.7c0.3,0,0.4,0.3,0.6,0.6C100.4,136.4,100.2,136.2,101.1,135.7z
		 M100.7,83.5l0.6-0.4C101.2,83.2,100.9,83.2,100.7,83.5z M102.7,128.5l-1.4,0.6c0,0.5,0.1,0.6,0.4,0.6c-0.3,0-0.5,0.1-0.6,0.4
		c-0.3-0.3-0.1-0.5,0.4-1l-0.6,0.4v-0.4l0.4-0.4C101.7,128.5,102.2,128.5,102.7,128.5z M101.1,83.8l0.4-0.6l0.4-0.4
		C101.7,83.5,101.5,83.8,101.1,83.8z M101.3,126.1h0.6H101.3z M103.1,127.5l-0.6-0.4C102,127.1,102.2,127.2,103.1,127.5z M104,131.8
		l-0.6,0.6h0.4l-0.6,0.4v-0.6l-0.6,0.4l0.4-0.4c-0.3,0-0.4-0.3-0.4-0.6h0.4v-0.6l0.6,0.4l-0.4,0.4L104,131.8z M103.7,128.5h-1
		C103,128.3,103.2,128.3,103.7,128.5z M108,134.4c-1.5,0-2.4-0.1-2.6-0.4c-0.3,0.3-0.5,0.3-0.6,0c-0.6,0-1.1-0.1-1.4-0.4h0.6v-0.3
		h0.4L104,133h0.6c0.3,0.3,0.4,0.1,0.6-0.4c0.9,0.9,1.3,1.4,1,1.4C106.4,134.3,106.9,134.4,108,134.4z M107.4,89.4L107,89v0.4
		c-0.6-0.6-0.9-1.1-0.6-1.4v-1c-0.3-0.3-0.5-0.3-0.6,0c0-0.6-0.4-1.1-1-1.4c-0.9,0-0.8-0.3,0.4-0.6v-0.4l1.4,1.6
		C107.2,87.6,107.5,88.5,107.4,89.4z M105.4,131.8c-0.5,0-0.6,0.1-0.6,0.4L105.4,131.8z M107,132.4c-0.5,0.5-0.6,0.5-0.6,0.4
		l-0.4-0.4c-0.6,0-0.6-0.3,0-0.6C106,131.5,106.4,131.8,107,132.4z M105.7,127.7v0.6l0.4,0.4L105.7,127.7z M106.7,128.8
		c-0.3-0.3-0.4,0-0.4,0.6L106.7,128.8z M108,139.1c-0.3-0.3-0.5-0.4-1-0.4l-0.4-0.4c0.3-0.3,0.4-0.5,0.4-1l0.4,0.4v-0.4l0.4-0.4v0.4
		l0.4,0.4l-0.4,0.4l0.6,0.6L108,139.1z M108.4,132.4h-0.6c0,1.4,0.4,1.4,1,0.4L108.4,132.4z M108.6,131.4l-0.6-0.6
		c0.4,1.1,0.8,1.3,1,0.4L108.6,131.4z M108.4,140l-0.4,0.4l0.6-0.6L108.4,140z M109,140.3v0.4l-0.4,0.4l-0.6-0.4h0.4
		C108.1,140.7,108.4,140.6,109,140.3z M108.4,109.2v0.4l0.6,0.4L108.4,109.2z M109.4,141.7l-0.6-0.4h0.4L109.4,141.7z M109.6,110.9
		c0,0.5,0.3,0.6,0.6,0.6l-0.4,0.4v0.4l1-0.6L109.6,110.9z M111.3,140h0.6h0.4C112.3,139.8,112,139.8,111.3,140z M112.9,108.2
		c0-0.9-0.1-1.3-0.4-1L112.9,108.2z M117.6,153.9h0.4l-0.4-0.6V153.9z M127.1,176.7l-1,1C124.9,177.7,125.2,177.3,127.1,176.7z
		 M128.1,173.1c-0.5,0.9-0.8,1.4-1,1.6C128.3,174.3,128.6,173.8,128.1,173.1z M129.1,167.8c-0.3,0-0.5,0.1-0.6,0.4h0.4L129.1,167.8z
		 M137.1,110.3c0,2.3-0.5,3.4-1.4,3.6c-1.8-0.4-2.4-1.4-2-3c0.4-1.4,0.9-2.1,1.4-2.3C135.8,108.4,136.4,108.9,137.1,110.3z
		 M143.4,124.9c0,0.3-0.4,0.9-1.1,2.1c-0.8,1.3-0.9,2.1-0.5,2.8c-0.6,0.5-1.1,1.3-1.5,2.3c-0.4,1.1-0.8,1.6-1.1,1.6l-1.4-0.6
		c-2.3-4.2-3.1-6.9-2.6-8.3c-0.3,0-0.4-0.3-0.4-0.6l0.4,0.4c0-0.9,0.4-2.1,1.4-4c-0.9-0.6-1.1-1.4-0.9-2.1c0.4-0.8,0.1-1.5-0.5-2.1
		c0-0.6,0.3-1.1,0.6-1.4c0.6,0,1,0.3,1,0.6c-0.3,0.5-0.4,0.8-0.4,1c0,0.3,0.3,0.5,0.6,0.6c0.4,0.3,0.6,0.6,0.6,1.4
		c0.3,0,0.5-0.1,0.9-0.5c0.4-0.4,0.9-0.5,1.5-0.5c1.1-0.3,2.3,0.5,3.3,2.3v5.2H143.4z M135.4,132.4h-0.6
		C135.1,132.4,135.2,132.4,135.4,132.4z M137.4,106.2c0,0.6-0.3,1.3-0.6,1.6c-0.6,0.3-1.3-0.3-1.6-1.4c0-1.1,0.4-1.8,1-2
		C136.3,104.8,136.8,105.3,137.4,106.2z M137.4,99.3c-0.9-0.9-0.9-1.4,0-1.4l0.6,0.4C138.1,99.1,137.8,99.3,137.4,99.3z M137.8,94.7
		c-0.5,0-0.6-0.3-0.6-0.6s0.3-0.6,0.6-0.6l0.6,0.6C138.4,94.5,138.2,94.7,137.8,94.7z M139.7,136.1c0,0.9-0.4,1.4-1,1.6
		c-0.5,0-0.9-0.4-1.4-1.4c0-0.6,0.4-1.3,1-1.6C138.8,134.9,139.3,135.4,139.7,136.1z M138.1,150.7h0.4v0.6h-0.4
		C137.8,151.5,137.8,151.3,138.1,150.7z M138.1,149.6l0.4-0.4l0.4,0.4H138.1z M138.7,171.4v-0.6c0,0.3-0.3,0.4-0.6,0.4
		C138.1,172,138.3,172,138.7,171.4z M139.1,87.1l-0.4,0.4l-0.4-0.4v-0.6l0.4-0.4C139.6,86.1,139.7,86.5,139.1,87.1z M139.1,172.8
		l-0.6,0.4C139.1,173.1,139.3,172.9,139.1,172.8z M139.5,150.7l-0.6-0.6C138.7,150.4,139,150.7,139.5,150.7z M141.7,29.8
		c0,0.9-0.4,1.4-1,1.6c-0.9,0-1.4-0.4-1.6-1c0-0.6,0.4-1.3,1-1.6C140.5,28.7,141.1,29,141.7,29.8z M144,44.4
		c0.3,0.5,0.1,1.6-0.4,3.6c-1.4,0.9-2.4,1.1-3.3,0.6c-0.9-0.6-1.4-1.5-1.4-2.6c0-0.4,0.1-1,0.4-1.8c0.3-0.8,1.1-1.4,2.6-1.8
		C143,42.9,143.6,43.6,144,44.4z M140.1,183h-1l0.4,0.4v0.4L140.1,183z M140.5,149.6l-1-1C140.1,148.4,140.5,148.8,140.5,149.6z
		 M142.1,169.2l-0.6,0.4h-0.4l0.4-0.4l-0.4-0.4v0.4c-0.5,0.5-0.6,0.5-0.6,0c-0.6,0.6-0.9,1-0.6,1h-0.4l0.6,0.4v-0.4
		c0.4,0,0.8,0.1,1,0.4l1.4-0.6L142.1,169.2z M140.1,169.2l-0.4-0.4l0.4-0.4C139.5,168.6,139.5,168.9,140.1,169.2z M143.1,157.2
		l-0.4-0.4h-1.6l-0.6-1h0.4l-0.4-0.4l-0.4,0.6c0.6,0.6,1.3,1,1.6,1C142.2,157.2,142.6,157.2,143.1,157.2z M141.1,135.4
		c-0.3,0.5-0.4,0-0.4-1.4l0.6,1.4H141.1z M141.1,16.6c0-0.6,0.1-1,0.4-1l1,0.4C142.3,16.9,142,17.1,141.1,16.6z M142.7,156.2
		l-0.4-0.4H142l-0.4-0.4l-0.6,0.4c0.4-0.3,0.6-0.1,0.6,0.4C141.7,156.7,142.1,156.7,142.7,156.2z M142.1,173.4h0.4
		c0,0.6-0.1,0.9-0.4,0.6c-0.6,0-1-0.1-1-0.4h0.4l0.4-0.4l0.4,0.4l-0.4-0.6L142.1,173.4z M141.1,178.3l0.4,0.4h0.4v0.4L141.1,178.3z
		 M141.3,180v-0.4l-0.4-0.4C141.1,179.6,141.2,179.8,141.3,180z M142.7,185.3c-1.4-0.3-1.6-0.4-1-0.4L142.7,185.3z M143.4,175.7H143
		l-0.4,0.4l-0.4,0.6h0.4h0.6l-1,0.6c-0.6-1.1-0.9-1.6-0.6-1.6s0.4,0.1,0.6,0.4c-0.6-0.6-0.6-1.1,0-1.4c0.3,0,0.4-0.3,0.6-0.6
		C143.2,174.3,143.4,174.8,143.4,175.7z M142.3,27.6l-0.6-0.6l0.6-0.6l1,1C143.4,28.1,143.1,28.2,142.3,27.6z M148,193.9
		c-1.4,1.4-2.1,2-2.3,2c-1.5-0.5-2.5-1.4-3-2.6c-1.1-1.8-1.1-3.5,0-5.3c0-0.6,0.3-1,0.6-1.1s0.6-0.4,0.6-0.9h1c0.6,0,1.6,0.4,3,1.4
		c0.4,1.5,0.6,2.9,0.6,4C148.6,192.4,148.4,193.3,148,193.9z M143.7,158.6c-0.5-0.4-0.8-0.6-1-0.6c-0.3,0.3-0.4,0.5-0.4,1H142v0.4
		l0.4,0.4v0.4l0.4-0.6h0.4L143.7,158.6z M142.1,171.2h0.4v0.4L142.1,171.2z M145.4,64.3c0,0.9-0.4,1.4-1,1.4c-1.1,0-1.8-0.3-2-0.6
		c-0.5-0.6-0.1-1.4,1-2C144.7,62.3,145.4,62.7,145.4,64.3z M143.1,25.6c-0.5,0-0.6-0.1-0.6-0.4l1-0.6
		C143.4,25.3,143.2,25.6,143.1,25.6z M143.4,160.5v-0.4H143l-0.4,0.4v0.4l0.4,0.4l-0.4,0.4h-0.3c0.3,0.3,0.5,0.1,1-0.4V160.5z
		 M144.7,171.8l-0.4,0.4v0.4H144l-0.4,0.4l0.4,0.4c-0.3,0.5-0.3,0.6,0,0.6c-0.5-0.3-0.6-0.4-0.6-0.6l-0.4,0.4l-0.4-0.4l-0.4-0.4
		v-0.5h0.4l0.4,0.4l0.4-0.6h0.6l-0.4-0.4h0.6H144.7z M142.7,180v-0.4l1.4,0.6C143.9,180.1,143.4,180,142.7,180z M148,130.8
		c0,1.5-0.6,2.4-2,2.6c-1.8,0.6-2.6,0.3-2.6-1.4c-0.3-0.3-0.4-0.5-0.4-1c0-0.4,0.1-0.9,0.4-1.4l2.6-1.4
		C147.4,128.9,148,129.6,148,130.8z M144.7,157.2c-0.3-0.4-0.6-0.9-1.4-1.4c-0.3,0-0.3,0.4,0,1L144.7,157.2z M144.7,32.5
		c0,0.5-0.1,0.8-0.4,1c-0.5,0-0.6-0.4-0.6-1C143.7,31.9,144,31.9,144.7,32.5z M144.7,151.3c-0.3-0.3-0.5-0.4-1-0.4
		C143.7,150.7,144,150.8,144.7,151.3z M145.4,174.4l-1,0.6l-0.6-0.6h0.6l-0.4-0.4l0.4-0.4l0.4,0.6h0.6V174.4z M149.6,9.7
		c0.4,0.9,0.3,2-0.6,3.3c-1.8,0.6-2.8,0.9-3,0.6c-0.5-0.3-1.1-1-2-2.3c-0.5-0.9-0.3-1.9,0.6-3c0.4,0,0.8-0.1,1-0.5
		c0.3-0.4,0.6-0.5,1.4-0.5C148.8,8.1,149.6,8.8,149.6,9.7z M144.7,167.8l0.4-0.4L144.7,167.8z M145.7,163.1l-0.4,0.4v-0.6l0.4-0.6
		V163.1z M146.6,7.1c-0.5,0-0.8-0.1-0.9-0.5c-0.1-0.4-0.1-0.6-0.1-0.9s0.4-0.4,1-0.4l1,0.4C147.6,6.7,147.4,7.1,146.6,7.1z
		 M146.4,17.4c-0.3,0.3-0.4,0-0.4-0.6l0.4-0.6l1,0.6C147.4,17.5,147,17.8,146.4,17.4z M147.6,148.9H147l0.4-0.6L147.6,148.9z"/>
</g>
</svg>
